<svg width="103" height="28" fill="none" xmlns="http://www.w3.org/2000/svg"><path d="M.688 27V.818h7.107v20.455h10.586V27H.687Zm44.91-13.09c0 2.914-.567 5.373-1.7 7.375-1.134 1.995-2.664 3.508-4.59 4.539-1.926 1.023-4.074 1.534-6.443 1.534-2.386 0-4.543-.516-6.469-1.547-1.917-1.04-3.443-2.557-4.576-4.551-1.125-2.003-1.688-4.453-1.688-7.35 0-2.916.563-5.37 1.688-7.365 1.133-2.002 2.659-3.515 4.576-4.538C28.322.976 30.48.46 32.866.46c2.368 0 4.516.516 6.442 1.547 1.926 1.023 3.456 2.536 4.59 4.538 1.133 1.995 1.7 4.45 1.7 7.364Zm-7.313 0c0-1.57-.208-2.89-.626-3.964-.409-1.082-1.018-1.9-1.828-2.455-.801-.562-1.79-.843-2.966-.843-1.176 0-2.169.281-2.979.843-.8.554-1.41 1.373-1.828 2.455-.409 1.074-.613 2.395-.613 3.963s.204 2.894.613 3.976c.418 1.074 1.027 1.892 1.828 2.454.81.555 1.803.832 2.98.832 1.175 0 2.164-.277 2.965-.831.81-.563 1.419-1.381 1.828-2.455.418-1.082.627-2.408.627-3.976ZM65.89 9.46a3.51 3.51 0 0 0-.525-1.189 3.265 3.265 0 0 0-.894-.882 3.67 3.67 0 0 0-1.228-.55 5.675 5.675 0 0 0-1.521-.191c-1.193 0-2.212.285-3.056.856-.835.571-1.474 1.394-1.917 2.468-.435 1.074-.652 2.369-.652 3.886 0 1.534.209 2.846.626 3.938.418 1.09 1.04 1.926 1.867 2.505.826.58 1.853.87 3.08.87 1.083 0 1.982-.158 2.698-.474.725-.315 1.266-.762 1.624-1.342.358-.58.537-1.261.537-2.045l1.227.128h-5.983v-5.063h11.608v3.63c0 2.387-.507 4.428-1.521 6.124-1.006 1.688-2.395 2.983-4.168 3.887-1.764.895-3.788 1.342-6.072 1.342-2.549 0-4.786-.541-6.712-1.624-1.926-1.082-3.43-2.625-4.513-4.628-1.074-2.002-1.61-4.384-1.61-7.146 0-2.165.328-4.082.984-5.753.665-1.67 1.585-3.08 2.761-4.231a11.672 11.672 0 0 1 4.078-2.62C58.151.758 59.804.46 61.568.46c1.552 0 2.992.222 4.322.665 1.338.435 2.518 1.057 3.54 1.866a9.695 9.695 0 0 1 2.494 2.851 9.069 9.069 0 0 1 1.15 3.618H65.89Zm36.169 4.45c0 2.914-.567 5.373-1.7 7.375-1.134 1.995-2.664 3.508-4.59 4.539-1.926 1.023-4.074 1.534-6.443 1.534-2.386 0-4.543-.516-6.469-1.547-1.917-1.04-3.443-2.557-4.576-4.551-1.126-2.003-1.688-4.453-1.688-7.35 0-2.916.563-5.37 1.688-7.365 1.133-2.002 2.659-3.515 4.576-4.538C84.783.976 86.94.46 89.326.46c2.37 0 4.517.516 6.443 1.547 1.926 1.023 3.456 2.536 4.59 4.538 1.133 1.995 1.7 4.45 1.7 7.364Zm-7.313 0c0-1.57-.208-2.89-.626-3.964-.41-1.082-1.018-1.9-1.828-2.455-.801-.562-1.79-.843-2.966-.843-1.176 0-2.169.281-2.979.843-.8.554-1.41 1.373-1.828 2.455-.409 1.074-.614 2.395-.614 3.963s.205 2.894.614 3.976c.418 1.074 1.027 1.892 1.828 2.454.81.555 1.803.832 2.979.832 1.176 0 2.165-.277 2.966-.831.81-.563 1.419-1.381 1.828-2.455.418-1.082.626-2.408.626-3.976Z" fill="#014C98"/></svg>